<svg xmlns="http://www.w3.org/2000/svg" version="1.1" xmlns:xlink="http://www.w3.org/1999/xlink" xmlns:svgjs="http://svgjs.dev/svgjs" width="1000" height="542" viewBox="0 0 1000 542"><g transform="matrix(1,0,0,1,-0.6060606060606233,-0.1140974826152501)"><svg viewBox="0 0 396 215" data-background-color="#ffffff" preserveAspectRatio="xMidYMid meet" height="542" width="1000" xmlns="http://www.w3.org/2000/svg" xmlns:xlink="http://www.w3.org/1999/xlink"><g id="tight-bounds" transform="matrix(1,0,0,1,0.2400000000000091,0.04526007151712008)"><svg viewBox="0 0 395.52 214.90947985696576" height="214.90947985696576" width="395.52"><g><svg viewBox="0 0 454.9475624112676 247.2" height="214.90947985696576" width="395.52"><g><svg viewBox="0 0 245.11098591549296 247.2" height="247.2" width="245.11098591549296"><g id="textblocktransform"><svg viewBox="0 0 245.11098591549296 247.2" height="247.2" width="245.11098591549296" id="textblock"><g><svg viewBox="0 0 245.11098591549296 247.2" height="247.2" width="245.11098591549296"><g transform="matrix(1,0,0,1,0,0)"><svg width="245.11098591549296" viewBox="4.25 -35.5 35.20000076293945 35.5" height="247.2" data-palette-color="#bf2051"><path d="M39.45 0L34.95 0 34.95-27.1 23.25-6.25 20.5-6.25 8.75-27.1 8.75 0 4.25 0 4.25-35.5 9-35.5 21.85-12.45 34.75-35.5 39.45-35.5 39.45 0Z" opacity="1" transform="matrix(1,0,0,1,0,0)" fill="#bf2051" class="wordmark-text-0" data-fill-palette-color="primary" id="text-0"></path></svg></g></svg></g></svg></g></svg></g><g transform="matrix(1,0,0,1,303.468973115493,47.860705352112674)"><svg viewBox="0 0 151.47858929577464 151.47858929577464" height="151.47858929577464" width="151.47858929577464"><g data-palette-color="#bf2051"><rect width="41.40414774084507" height="151.47858929577464" fill="#bf2051" stroke="transparent" data-fill-palette-color="accent" x="0" fill-opacity="1"></rect><rect width="41.40414774084507" height="151.47858929577464" fill="#bf2051" stroke="transparent" data-fill-palette-color="accent" x="50.49286309859155" fill-opacity="0.75"></rect><rect width="41.40414774084507" height="151.47858929577464" fill="#bf2051" stroke="transparent" data-fill-palette-color="accent" x="100.9857261971831" fill-opacity="0.5"></rect></g></svg></g></svg></g><defs></defs></svg><rect width="395.52" height="214.90947985696576" fill="none" stroke="none" visibility="hidden"></rect></g></svg></g></svg>